<?xml version="1.0" encoding="utf-8"?>
<!-- Generator: Adobe Illustrator 23.0.0, SVG Export Plug-In . SVG Version: 6.00 Build 0)  -->
<svg version="1.1" id="Capa_1" xmlns="http://www.w3.org/2000/svg" xmlns:xlink="http://www.w3.org/1999/xlink" x="0px" y="0px"
	 viewBox="0 0 517.88 598" style="enable-background:new 0 0 517.88 598;" xml:space="preserve">
<style type="text/css">
	.st0{fill:url(#SVGID_1_);}
	.st1{fill:url(#SVGID_2_);}
	.st2{fill:url(#SVGID_3_);}
	.st3{fill:url(#SVGID_4_);}
	.st4{fill:url(#SVGID_5_);}
	.st5{fill:url(#SVGID_6_);}
	.st6{opacity:0.05;fill:#1D1D1B;}
	.st7{opacity:0.05;}
	.st8{fill:#1D1D1B;}
	.st9{fill:url(#SVGID_7_);}
	.st10{fill:url(#SVGID_8_);}
	.st11{fill:url(#SVGID_9_);}
	.st12{fill:url(#SVGID_10_);}
	.st13{fill:#009640;}
	.st14{fill:url(#SVGID_11_);}
	.st15{fill:url(#SVGID_12_);}
	.st16{fill:url(#SVGID_13_);}
	.st17{fill:url(#SVGID_14_);}
	.st18{fill:url(#SVGID_15_);}
	.st19{fill:url(#SVGID_16_);}
	.st20{fill:url(#SVGID_17_);}
	.st21{fill:url(#SVGID_18_);}
	.st22{fill:url(#SVGID_19_);}
	.st23{fill:url(#SVGID_20_);}
	.st24{fill:url(#SVGID_21_);}
	.st25{fill:url(#SVGID_22_);}
	.st26{fill:url(#SVGID_23_);}
	.st27{fill:url(#SVGID_24_);}
	.st28{fill:none;stroke:#FFFFFF;stroke-width:25;stroke-miterlimit:10;}
	.st29{fill:none;stroke:#FFFFFF;stroke-width:15;stroke-miterlimit:10;}
	.st30{fill:#FFFFFF;}
	.st31{fill:none;stroke:#FFFFFF;stroke-width:25;stroke-linecap:round;stroke-miterlimit:10;}
	.st32{fill:none;stroke:#FFFFFF;stroke-width:15;stroke-linecap:square;stroke-miterlimit:10;}
	.st33{fill:url(#SVGID_25_);}
	.st34{fill:url(#SVGID_26_);}
	.st35{fill:url(#SVGID_27_);}
	.st36{fill:url(#SVGID_28_);}
	.st37{fill:url(#SVGID_29_);}
	.st38{fill:url(#SVGID_30_);}
	.st39{fill:url(#SVGID_31_);}
	.st40{fill:url(#SVGID_32_);}
	.st41{fill:url(#SVGID_33_);}
	.st42{fill:url(#SVGID_34_);}
	.st43{fill:url(#SVGID_35_);}
	.st44{fill:url(#SVGID_36_);}
</style>
<g>
	<g>
		
			<linearGradient id="SVGID_1_" gradientUnits="userSpaceOnUse" x1="4274.0449" y1="-1349.0364" x2="4787.8442" y2="-1349.0364" gradientTransform="matrix(0 -1 1 0 1607.978 4829.9448)">
			<stop  offset="0" style="stop-color:#D50057"/>
			<stop  offset="1" style="stop-color:#C9002F"/>
		</linearGradient>
		<polygon class="st0" points="36.46,170.55 36.46,427.45 258.94,555.9 481.42,427.45 481.42,170.55 258.94,42.1 		"/>
		<linearGradient id="SVGID_2_" gradientUnits="userSpaceOnUse" x1="258.9416" y1="598" x2="258.9416" y2="-4.547474e-13">
			<stop  offset="0" style="stop-color:#BF004D"/>
			<stop  offset="1" style="stop-color:#B5002F"/>
		</linearGradient>
		<path class="st1" d="M258.94,42.1l222.48,128.45v256.9L258.94,555.9L36.46,427.45v-256.9L258.94,42.1 M258.94,0l-18.23,10.53
			L18.23,138.97L0,149.5v21.05v256.9v21.05l18.23,10.53l222.48,128.45L258.94,598l18.23-10.53l222.48-128.45l18.23-10.53v-21.05
			v-256.9V149.5l-18.23-10.53L277.17,10.53L258.94,0L258.94,0z"/>
	</g>
	<path class="st6" d="M351.85,235.82V80.92h-36.46v58.8h-112.9v-58.8h-36.46v154.89c0,31.17,16.04,57.36,44.49,74.81
		c-28.18,17.6-44.49,43.97-44.49,74.55v154.89h36.46v-58.8h112.9v58.8h36.46V385.18c0-30.57-16.3-56.95-44.48-74.55
		C335.81,293.17,351.85,266.98,351.85,235.82z M315.39,161.6v47.86h-112.9V161.6H315.39z M202.49,459.4v-47.86h112.9v47.86H202.49z
		 M315.39,389.66h-112.9v-4.48c0-36.35,39.02-51.1,56.45-55.87c17.43,4.77,56.45,19.52,56.45,55.87V389.66z M258.94,291.7
		c-19.79-5.32-56.45-20.03-56.45-55.88v-4.48h112.9v4.48C315.39,271.67,278.73,286.37,258.94,291.7z"/>
	<path class="st30" d="M351.85,224.32V69.43h-36.46v58.8h-112.9v-58.8h-36.46v154.89c0,31.17,16.04,57.36,44.49,74.81
		c-28.18,17.6-44.49,43.97-44.49,74.55v154.89h36.46v-58.8h112.9v58.8h36.46V373.68c0-30.57-16.3-56.95-44.48-74.55
		C335.81,281.68,351.85,255.49,351.85,224.32z M315.39,150.1v47.86h-112.9V150.1H315.39z M202.49,447.9v-47.86h112.9v47.86H202.49z
		 M315.39,378.17h-112.9v-4.48c0-36.35,39.02-51.1,56.45-55.87c17.43,4.77,56.45,19.52,56.45,55.87V378.17z M258.94,280.2
		c-19.79-5.32-56.45-20.03-56.45-55.88v-4.48h112.9v4.48C315.39,260.17,278.73,274.88,258.94,280.2z"/>
</g>
</svg>
