<?xml version="1.0" encoding="utf-8"?>
<!-- Generator: Adobe Illustrator 23.0.0, SVG Export Plug-In . SVG Version: 6.00 Build 0)  -->
<svg version="1.1" id="Capa_1" xmlns="http://www.w3.org/2000/svg" xmlns:xlink="http://www.w3.org/1999/xlink" x="0px" y="0px"
	 viewBox="0 0 537.9 786.8" style="enable-background:new 0 0 537.9 786.8;" xml:space="preserve">
<style type="text/css">
	.st0{fill:#D50057;}
	.st1{fill:#FFFFFF;}
</style>
<g id="reticula">
</g>
<g id="trazos">
</g>
<g id="forma">
</g>
<circle class="st0" cx="268.9" cy="247.8" r="238.9"/>
<path class="st1" d="M398.1,315.4c-4-24.8-6-50.3-6-76.1s2.1-51.4,6-76.1L116.3,0.4c0,0,0,59.7,0,79.6c0,79.6,0,79.6,68.9,119.4
	c9.1,5.2,68.9,39.9,68.9,39.9l-68.9,39.9c-68.9,39.9-68.9,39.9-68.9,119.4c0,19.9,0,79.6,0,79.6l137.9-79.6
	C295.6,469.9,372.7,518,461.1,518c6.8,0,13.5-0.3,20.1-0.8C439.2,458.3,410.1,389.7,398.1,315.4z"/>
<g id="Grupo_24" transform="translate(-2653 -657.182)">
	<path id="Trazado_70" class="st1" d="M2685.4,1362.4c-0.2-2.6-0.3-5.2-0.3-7.8v-15.9c0-4.6-0.8-7.9-2.5-9.9c-1.6-2-4.3-3-8-3h-5.5
		v41.3h-15.9v-101.4h24c8.2,0,14.2,1.9,17.9,5.7c3.8,3.8,5.6,9.7,5.6,17.6v8c0,10.4-3.5,17.3-10.4,20.6c3.6,1.4,6.5,4.2,8.1,7.7
		c1.8,4.4,2.6,9.1,2.5,13.8v15.6c0,2.3,0.1,4.7,0.3,7c0.2,1.8,0.7,3.6,1.4,5.3h-16.2C2686.1,1365.5,2685.7,1363.9,2685.4,1362.4z
		 M2669.2,1311.2h6.2c2.6,0.2,5.2-0.7,7.2-2.5c1.6-1.6,2.4-4.4,2.4-8.3v-10c0-3.7-0.6-6.3-1.9-8c-1.5-1.8-3.8-2.7-6.1-2.5h-7.7
		L2669.2,1311.2z"/>
	<path id="Trazado_71" class="st1" d="M2750,1367l-2.8-18.4h-19.5l-2.8,18.4h-14.6l16.2-101.4h23.3L2766,1367H2750z M2745,1334.8
		l-7.7-51.3l-7.7,51.3H2745z"/>
	<path id="Trazado_72" class="st1" d="M2811.3,1310.7v14.5h-20.5v41.8h-15.9v-101.4h42.1v14.5h-26.2v30.6H2811.3L2811.3,1310.7z"/>
	<path id="Trazado_73" class="st1" d="M2857.1,1367l-2.8-18.4h-19.5l-2.8,18.4h-14.6l16.2-101.4h23.3l16.2,101.4H2857.1z
		 M2852.2,1334.8l-7.7-51.3l-7.7,51.3H2852.2z"/>
	<path id="Trazado_74" class="st1" d="M2919.8,1308.3v14.5H2898v29.7h27.5v14.5h-43.4v-101.4h43.4v14.5H2898v28.2L2919.8,1308.3
		L2919.8,1308.3z"/>
	<path id="Trazado_75" class="st1" d="M2951.2,1265.6v86.9h26.2v14.5h-42.1v-101.4H2951.2z"/>
	<path id="Trazado_76" class="st0" d="M3037.4,1265.6l-39.9,101.4h-13.7l39.9-101.4H3037.4z"/>
	<path id="Trazado_77" class="st0" d="M3076.2,1265.6l-39.9,101.4h-13.7l39.9-101.4H3076.2z"/>
	<path id="Trazado_78" class="st1" d="M3126.6,1271.3c3.8,3.8,5.6,9.7,5.6,17.6v3.6c0.2,4.4-0.7,8.8-2.5,12.9
		c-1.6,3.3-4.4,6-7.7,7.5c7.9,3.1,11.8,10.3,11.9,21.7v8.3c0,7.8-2.1,13.8-6.1,17.9c-4.1,4.1-10.1,6.2-18,6.2h-25v-101.4h24
		C3116.9,1265.6,3122.9,1267.5,3126.6,1271.3z M3100.6,1306.9h6.2c2.6,0.2,5.2-0.7,7.1-2.5c1.6-1.6,2.4-4.4,2.4-8.3v-5.6
		c0-3.7-0.6-6.3-1.9-8c-1.5-1.8-3.8-2.7-6.1-2.5h-7.7V1306.9z M3100.6,1352.5h9.1c2.3,0.2,4.6-0.6,6.2-2.2c1.3-1.5,2-4.1,2-7.7v-8.8
		c0-4.6-0.8-7.8-2.4-9.6c-1.6-1.8-4.2-2.7-7.9-2.7h-7.1L3100.6,1352.5L3100.6,1352.5z"/>
	<path id="Trazado_79" class="st1" d="M3190.5,1310.5v32.1c0,8.2-2,14.5-6.1,18.9c-4,4.4-9.9,6.6-17.6,6.6c-7.7,0-13.6-2.2-17.6-6.6
		s-6.1-10.7-6.1-18.9V1290c0-8.2,2-14.5,6.1-18.9c4-4.4,9.9-6.6,17.6-6.6c7.7,0,13.6,2.2,17.6,6.6s6.1,10.7,6.1,18.9v9.8h-15v-10.9
		c0-6.7-2.8-10-8.2-10s-8.2,3.3-8.2,10v54.7c0,6.6,2.8,9.8,8.2,9.8s8.2-3.3,8.2-9.8V1325h-7.2v-14.5H3190.5z"/>
	<g id="Grupo_23" transform="translate(-309.303 -2837.048)">
		<g id="Grupo_22">
			<path id="Trazado_80" class="st1" d="M2983.1,4232.7c1.9,2.2,2.9,5.3,2.9,9.3v25.6c0,4-0.9,7-2.9,9.2c-1.9,2.2-4.8,3.3-8.6,3.3
				h-11.9v-50.7h11.9C2978.3,4229.4,2981.2,4230.5,2983.1,4232.7z M2980.3,4267.8v-26.1c0-4.8-2-7.2-6.1-7.2h-6.1v40.4h6.1
				C2978.4,4274.9,2980.3,4272.5,2980.3,4267.8L2980.3,4267.8z"/>
			<path id="Trazado_81" class="st1" d="M3000.3,4280.1h-5.6v-50.7h5.6V4280.1z"/>
			<path id="Trazado_82" class="st1" d="M3028.6,4232.2c2,2.7,3,6,2.9,9.3v1.4h-5.3v-1.7c0-4.8-1.9-7.2-5.8-7.2s-5.8,2.4-5.8,7.2
				c-0.1,2.2,0.6,4.4,1.9,6.1c1.7,2.1,3.7,3.9,5.9,5.5c2.1,1.7,3.7,3.2,4.9,4.4c1.3,1.3,2.3,2.8,3,4.5c0.9,1.9,1.3,4,1.3,6.2
				c0.2,3.3-0.8,6.7-2.9,9.3c-1.9,2.2-4.8,3.4-8.5,3.4c-3.8,0-6.6-1.1-8.5-3.4c-2-2.7-3-6-2.9-9.3v-2.9h5.3v3.2
				c-0.1,1.9,0.4,3.8,1.5,5.4c2.4,2.5,6.3,2.5,8.7,0.1c0.1-0.1,0.1-0.1,0.1-0.1c1.1-1.6,1.6-3.5,1.5-5.4c0.1-2.2-0.6-4.3-1.9-6
				c-1.7-2.1-3.7-3.9-5.8-5.6c-2-1.6-3.6-3.1-4.8-4.3c-1.3-1.3-2.3-2.9-3.1-4.6c-0.9-1.9-1.3-4.1-1.3-6.2c0-4,0.9-7.1,2.8-9.3
				c1.9-2.2,4.7-3.3,8.4-3.3C3023.9,4228.9,3026.7,4230,3028.6,4232.2z"/>
			<path id="Trazado_83" class="st1" d="M3057.9,4256.9h-12.4v18h15.2v5.1h-20.8v-50.7h20.8v5.1h-15.2v17.3h12.4V4256.9z"/>
			<path id="Trazado_84" class="st1" d="M3069.2,4280.1v-50.7h7.2l11.7,36.6v-36.6h5v50.7h-5.9l-12.9-41v41H3069.2z M3084.7,4226.1
				c-0.6,0-1.2-0.1-1.7-0.3c-0.6-0.2-1.2-0.5-1.8-0.9c-0.9-0.5-1.8-0.9-2.8-0.9c-0.6,0-1.3,0.1-1.8,0.5c-0.6,0.4-1.1,1-1.3,1.6
				l-2.8-1.9c1.1-2.8,2.9-4.2,5.3-4.2c0.6,0,1.2,0.1,1.8,0.3c0.6,0.2,1.3,0.5,1.9,0.9c0.9,0.5,1.8,0.9,2.8,0.9c1.3,0,2.5-0.8,3-2.1
				l2.8,1.9C3088.9,4224.7,3087.1,4226.1,3084.7,4226.1L3084.7,4226.1z"/>
			<path id="Trazado_85" class="st1" d="M3104.8,4232.3c1.9-2.3,4.8-3.4,8.6-3.4s6.7,1.1,8.7,3.4c2.1,2.6,3.2,6,3,9.3v26.2
				c0.2,3.4-0.9,6.7-3,9.3c-2,2.3-4.9,3.4-8.7,3.4c-3.2,0.2-6.4-1-8.6-3.4c-2.1-2.6-3.2-6-3-9.3v-26.2
				C3101.6,4238.3,3102.7,4234.9,3104.8,4232.3z M3108.9,4273.5c1.1,1.3,2.8,2,4.5,1.9c4,0,6-2.4,6-7.3v-26.8
				c0.1-1.9-0.4-3.8-1.5-5.4c-2.4-2.5-6.3-2.6-8.8-0.2c-0.1,0.1-0.1,0.1-0.2,0.2c-1.1,1.6-1.6,3.5-1.5,5.4v26.8
				C3107.3,4270,3107.8,4272,3108.9,4273.5z"/>
			<path id="Trazado_86" class="st1" d="M3148.7,4229.4h5.9l7.9,24.9l8-24.9h5.3l-10.8,32.5v18.2h-5.6v-18.2L3148.7,4229.4z"/>
			<path id="Trazado_87" class="st1" d="M3220.3,4232.7c1.9,2.2,2.9,5.3,2.9,9.3v25.6c0,4-0.9,7-2.9,9.2c-1.9,2.2-4.8,3.3-8.6,3.3
				h-11.9v-50.7h11.9C3215.5,4229.4,3218.4,4230.5,3220.3,4232.7z M3217.6,4267.8v-26.1c0-4.8-2-7.2-6.1-7.2h-6.1v40.4h6.1
				C3215.6,4274.9,3217.6,4272.5,3217.6,4267.8L3217.6,4267.8z"/>
			<path id="Trazado_88" class="st1" d="M3249.8,4256.9h-12.4v18h15.2v5.1h-20.8v-50.7h20.8v5.1h-15.2v17.3h12.4V4256.9z"/>
			<path id="Trazado_89" class="st1" d="M3280.2,4232.2c2,2.7,3,6,2.9,9.3v1.4h-5.4v-1.7c0-4.8-1.9-7.2-5.8-7.2s-5.8,2.4-5.8,7.2
				c-0.1,2.2,0.6,4.4,1.9,6.1c1.7,2.1,3.7,3.9,5.9,5.5c2.1,1.7,3.7,3.2,4.9,4.4c1.3,1.3,2.3,2.8,3,4.5c0.9,1.9,1.3,4,1.3,6.2
				c0.2,3.3-0.8,6.7-2.9,9.3c-1.9,2.2-4.8,3.4-8.5,3.4c-3.8,0-6.6-1.1-8.5-3.4c-2-2.7-3-6-2.9-9.3v-2.9h5.3v3.2
				c-0.1,1.9,0.4,3.8,1.5,5.4c2.4,2.5,6.3,2.5,8.7,0.1c0.1-0.1,0.1-0.1,0.1-0.1c1.1-1.6,1.6-3.5,1.5-5.4c0.1-2.2-0.6-4.3-1.9-6
				c-1.7-2.1-3.7-3.9-5.8-5.6c-2-1.6-3.6-3.1-4.8-4.3c-1.3-1.3-2.3-2.9-3.1-4.6c-0.9-1.9-1.3-4.1-1.3-6.2c0-4,0.9-7.1,2.8-9.3
				c1.9-2.2,4.7-3.3,8.4-3.3C3275.5,4228.9,3278.3,4230,3280.2,4232.2z"/>
			<path id="Trazado_90" class="st1" d="M3295.2,4280.1h-5.2l9.7-50.7h8.2l9.7,50.7h-5.6l-1.9-10.2h-12.8L3295.2,4280.1z
				 M3309.1,4265l-5.7-29.2l-5.6,29.2H3309.1z"/>
			<path id="Trazado_91" class="st1" d="M3345.6,4232.3c1.8,1.9,2.7,4.8,2.7,8.7v4.1c0.1,2.4-0.4,4.7-1.5,6.8
				c-2-0.5-4.1,0.6-4.6,2.6s0.6,4.1,2.6,4.6c0.7,0.2,1.4,0.2,2.1,0c1.1,2.1,1.6,4.5,1.5,6.9v7.9c0,1.2,0.1,2.3,0.2,3.5
				c0.1,0.9,0.4,1.8,0.8,2.6h-5.7c-0.3-0.8-0.6-1.6-0.7-2.4c-0.2-1.2-0.2-2.5-0.2-3.7v-8c0-2.8-0.6-4.7-1.8-5.8
				c-1.6-1.2-3.5-1.9-5.5-1.7h-4v21.6h-5.6v-50.7h11.3C3340.9,4229.4,3343.8,4230.3,3345.6,4232.3z M3340.9,4251.8
				c1.2-1,1.8-2.8,1.8-5.4v-4.9c0.1-1.8-0.4-3.7-1.4-5.2c-1.1-1.3-2.8-1.9-4.5-1.7h-5.5v18.8h4.2
				C3337.5,4253.4,3339.4,4252.9,3340.9,4251.8z"/>
			<path id="Trazado_92" class="st1" d="M3377.6,4232.3c1.8,1.9,2.7,4.8,2.7,8.7v4.1c0.1,2.4-0.4,4.7-1.5,6.8
				c-2-0.5-4.1,0.6-4.6,2.7c-0.5,2,0.6,4.1,2.7,4.6c0.7,0.2,1.4,0.2,2.1,0c1.1,2.1,1.6,4.5,1.5,6.9v7.9c0,1.2,0.1,2.3,0.2,3.5
				c0.1,0.9,0.4,1.8,0.8,2.6h-5.7c-0.3-0.8-0.6-1.6-0.7-2.4c-0.2-1.2-0.2-2.5-0.2-3.7v-8c0-2.8-0.6-4.7-1.8-5.8
				c-1.6-1.2-3.5-1.9-5.5-1.7h-4v21.6h-5.6v-50.7h11.3C3372.9,4229.4,3375.8,4230.3,3377.6,4232.3z M3372.9,4251.8
				c1.2-1,1.8-2.8,1.8-5.4v-4.9c0.1-1.8-0.4-3.7-1.4-5.2c-1.1-1.3-2.8-1.9-4.5-1.7h-5.5v18.8h4.2
				C3369.5,4253.4,3371.4,4252.9,3372.9,4251.8z"/>
			<path id="Trazado_93" class="st1" d="M3391.9,4232.3c1.9-2.3,4.8-3.4,8.6-3.4s6.7,1.1,8.7,3.4c2.1,2.6,3.2,6,3,9.3v26.2
				c0.2,3.4-0.9,6.7-3,9.3c-2,2.3-4.9,3.4-8.7,3.4c-3.2,0.2-6.4-1-8.6-3.4c-2.1-2.6-3.2-6-3-9.3v-26.2
				C3388.8,4238.3,3389.8,4234.9,3391.9,4232.3z M3396.1,4273.5c1.1,1.3,2.8,2,4.5,1.9c4,0,6-2.4,6-7.3v-26.8
				c0.1-1.9-0.4-3.8-1.5-5.4c-2.4-2.5-6.3-2.6-8.8-0.2c-0.1,0.1-0.1,0.1-0.2,0.2c-1.1,1.6-1.6,3.5-1.5,5.4v26.8
				C3394.4,4270,3395,4272,3396.1,4273.5L3396.1,4273.5z"/>
			<path id="Trazado_94" class="st1" d="M3420.9,4229.4h5.6v45.5h14.5v5.1h-20.1V4229.4z"/>
			<path id="Trazado_95" class="st1" d="M3449.2,4229.4h5.6v45.5h14.5v5.1h-20.1V4229.4z"/>
			<path id="Trazado_96" class="st1" d="M3479.6,4232.3c1.9-2.3,4.8-3.4,8.6-3.4s6.7,1.1,8.7,3.4c2.1,2.6,3.2,6,3,9.3v26.2
				c0.2,3.4-0.9,6.7-3,9.3c-2,2.3-4.9,3.4-8.7,3.4c-3.2,0.2-6.4-1-8.6-3.4c-2.1-2.6-3.2-6-3-9.3v-26.2
				C3476.5,4238.3,3477.6,4234.9,3479.6,4232.3z M3483.8,4273.5c1.1,1.3,2.8,2,4.5,1.9c4,0,6-2.4,6-7.3v-26.8
				c0.1-1.9-0.4-3.8-1.5-5.4c-2.4-2.5-6.3-2.6-8.8-0.2c-0.1,0.1-0.1,0.1-0.2,0.2c-1.1,1.6-1.6,3.5-1.5,5.4v26.8
				C3482.1,4270,3482.7,4272,3483.8,4273.5z"/>
		</g>
	</g>
</g>
<text transform="matrix(1 0 0 1 3120.0342 2250.0896)" style="font-family:'MyriadPro-Regular'; font-size:12px;">478.2 px</text>
<text transform="matrix(1 0 0 1 3120.0342 2250.0896)" style="font-family:'MyriadPro-Regular'; font-size:12px;">478.2 px</text>
<text transform="matrix(1 0 0 1 3120.0342 2250.0896)" style="font-family:'MyriadPro-Regular'; font-size:12px;">478.2 px</text>
<text transform="matrix(1 0 0 1 3179.8091 2250.0896)" style="font-family:'MyriadPro-Regular'; font-size:12px;">478.2 px</text>
</svg>
