<?xml version="1.0" encoding="utf-8"?>
<!-- Generator: Adobe Illustrator 23.0.0, SVG Export Plug-In . SVG Version: 6.00 Build 0)  -->
<svg version="1.1" id="Capa_1" xmlns="http://www.w3.org/2000/svg" xmlns:xlink="http://www.w3.org/1999/xlink" x="0px" y="0px"
	 viewBox="0 0 212 300" style="enable-background:new 0 0 212 300;" xml:space="preserve">
<style type="text/css">
	.st0{fill:#FFFFFF;}
</style>
<path class="st0" d="M163.64,182.58c-2.3-14.37-3.5-29.1-3.5-44.12c0-15.02,1.2-29.75,3.5-44.12L0.24,0c0,0,0.01,34.62,0.01,46.15
	c0,46.15,0,46.15,39.97,69.23c5.26,3.03,39.96,23.08,39.96,23.08l-39.96,23.08C0.24,184.62,0.24,184.62,0.24,230.77
	c0,11.54-0.01,46.15-0.01,46.15l79.94-46.16C104.12,272.15,148.86,300,200.11,300c3.92,0,7.81-0.17,11.65-0.49
	C187.39,265.47,170.54,225.69,163.64,182.58z"/>
</svg>
