<?xml version="1.0" encoding="utf-8"?>
<!-- Generator: Adobe Illustrator 23.0.0, SVG Export Plug-In . SVG Version: 6.00 Build 0)  -->
<svg version="1.1" id="Capa_1" xmlns="http://www.w3.org/2000/svg" xmlns:xlink="http://www.w3.org/1999/xlink" x="0px" y="0px"
	 viewBox="0 0 480 520" style="enable-background:new 0 0 480 520;" xml:space="preserve">
<style type="text/css">
	.st0{fill:url(#SVGID_1_);}
	.st1{fill:#FFFFFF;}
</style>
<linearGradient id="SVGID_1_" gradientUnits="userSpaceOnUse" x1="240" y1="9.62" x2="240" y2="487.78">
	<stop  offset="0" style="stop-color:#D50057"/>
	<stop  offset="1" style="stop-color:#C9002F"/>
</linearGradient>
<circle class="st0" cx="240" cy="248.7" r="239.1"/>
<g id="reticula">
</g>
<g id="trazos">
</g>
<g id="forma">
</g>
<path class="st1" d="M369.3,316.3c-4-24.8-6-50.3-6-76.2s2.1-51.4,6-76.2L87.2,1c0,0,0,59.8,0,79.7c0,79.7,0,79.7,69,119.5
	c9.1,5.2,69,39.9,69,39.9l-69,39.9c-69,39.9-69,39.9-69,119.5c0,19.9,0,79.7,0,79.7l138-79.7C266.6,470.9,343.8,519,432.3,519
	c6.8,0,13.5-0.3,20.1-0.8C410.4,459.4,381.3,390.7,369.3,316.3z"/>
</svg>
