<?xml version="1.0" encoding="utf-8"?>
<!-- Generator: Adobe Illustrator 23.0.0, SVG Export Plug-In . SVG Version: 6.00 Build 0)  -->
<svg version="1.1" id="Capa_1" xmlns="http://www.w3.org/2000/svg" xmlns:xlink="http://www.w3.org/1999/xlink" x="0px" y="0px"
	 viewBox="0 0 416 140" style="enable-background:new 0 0 416 140;" xml:space="preserve">
<style type="text/css">
	.st0{fill:#FFFFFF;}
	.st1{fill:#D50057;}
</style>
<g id="Grupo_24" transform="translate(-2653 -657.182)">
	<path id="Trazado_70" class="st0" d="M2678.74,733.62c-0.19-2-0.26-4.01-0.22-6.03v-12.28c0-3.57-0.63-6.12-1.9-7.64
		c-1.26-1.53-3.31-2.29-6.13-2.29h-4.23v31.8h-12.26v-78.11h18.49c6.31,0,10.92,1.47,13.81,4.4c2.9,2.94,4.35,7.46,4.35,13.56v6.14
		c0,8.03-2.67,13.32-8.02,15.85c2.79,1.09,5.03,3.23,6.24,5.97c1.37,3.38,2.02,7.01,1.89,10.66v12.05
		c-0.02,1.81,0.05,3.61,0.22,5.41c0.16,1.41,0.53,2.78,1.11,4.07h-12.48C2679.21,736.02,2678.91,734.83,2678.74,733.62z
		 M2666.26,694.22h4.79c2.02,0.15,4.02-0.53,5.52-1.9c1.23-1.26,1.84-3.39,1.84-6.36v-7.7c0-2.83-0.5-4.87-1.5-6.14
		c-1.19-1.35-2.94-2.05-4.73-1.9h-5.91L2666.26,694.22z"/>
	<path id="Trazado_71" class="st0" d="M2728.46,737.19l-2.12-14.17h-15.05l-2.12,14.17h-11.25l12.48-78.11h17.94l12.48,78.11
		L2728.46,737.19z M2724.67,712.41l-5.91-39.5l-5.91,39.5H2724.67z"/>
	<path id="Trazado_72" class="st0" d="M2775.73,693.78v11.16h-15.82v32.25h-12.26v-78.11h32.42v11.16h-20.17v23.55H2775.73z"/>
	<path id="Trazado_73" class="st0" d="M2811.06,737.19l-2.12-14.17h-15.04l-2.12,14.17h-11.25l12.48-78.11h17.94l12.48,78.11
		H2811.06z M2807.27,712.41l-5.91-39.5l-5.91,39.5H2807.27z"/>
	<path id="Trazado_74" class="st0" d="M2859.33,691.99v11.16h-16.82v22.88h21.17v11.16h-33.42v-78.11h33.42v11.16h-21.17v21.76
		H2859.33z"/>
	<path id="Trazado_75" class="st0" d="M2883.55,659.07v66.95h20.16v11.16h-32.42v-78.11H2883.55z"/>
	<path id="Trazado_76" class="st1" d="M2949.98,659.07l-30.75,78.11h-10.58l30.75-78.11H2949.98z"/>
	<path id="Trazado_77" class="st1" d="M2979.9,659.07l-30.75,78.11h-10.58l30.75-78.11H2979.9z"/>
	<path id="Trazado_78" class="st0" d="M3018.74,663.48c2.9,2.94,4.35,7.46,4.35,13.56v2.79c0.12,3.42-0.54,6.82-1.95,9.93
		c-1.26,2.56-3.36,4.62-5.96,5.81c6.09,2.38,9.13,7.96,9.14,16.74v6.36c0,6.03-1.58,10.62-4.73,13.78
		c-3.16,3.16-7.78,4.74-13.87,4.74h-19.27v-78.11h18.49C3011.23,659.08,3015.84,660.54,3018.74,663.48z M2998.68,690.88h4.79
		c2.02,0.15,4.02-0.53,5.51-1.9c1.23-1.26,1.84-3.38,1.84-6.36v-4.35c0-2.83-0.5-4.87-1.5-6.14c-1.19-1.35-2.94-2.05-4.73-1.9h-5.91
		L2998.68,690.88z M2998.68,726.03h7.02c1.77,0.14,3.52-0.49,4.79-1.73c1.04-1.15,1.56-3.14,1.56-5.97v-6.81
		c0-3.57-0.61-6.04-1.84-7.42s-3.25-2.07-6.07-2.07h-5.46V726.03z"/>
	<path id="Trazado_79" class="st0" d="M3067.98,693.67v24.77c0,6.32-1.56,11.18-4.68,14.56s-7.65,5.08-13.59,5.08
		c-5.94,0-10.47-1.69-13.59-5.08s-4.68-8.24-4.68-14.56v-40.62c0-6.32,1.56-11.18,4.68-14.56c3.12-3.39,7.65-5.08,13.59-5.08
		c5.94,0,10.47,1.69,13.59,5.08s4.68,8.24,4.68,14.56v7.59h-11.59v-8.37c0-5.13-2.12-7.7-6.35-7.7c-4.23,0-6.35,2.57-6.35,7.7v42.18
		c0,5.06,2.12,7.59,6.35,7.59c4.23,0,6.35-2.53,6.35-7.59v-14.39h-5.57v-11.16L3067.98,693.67z"/>
	<g id="Grupo_23" transform="translate(-309.303 -2837.048)">
		<g id="Grupo_22">
			<path id="Trazado_80" class="st0" d="M2979.04,3596.3c1.47,1.69,2.2,4.08,2.2,7.17v19.7c0,3.05-0.73,5.42-2.2,7.11
				c-1.47,1.69-3.69,2.54-6.66,2.54h-9.14v-39.06h9.14C2975.35,3593.77,2977.57,3594.61,2979.04,3596.3z M2976.95,3623.34v-20.09
				c0-3.68-1.56-5.52-4.68-5.52h-4.68v31.13h4.73C2975.41,3628.86,2976.95,3627.02,2976.95,3623.34L2976.95,3623.34z"/>
			<path id="Trazado_81" class="st0" d="M2992.3,3632.82h-4.35v-39.06h4.35V3632.82z"/>
			<path id="Trazado_82" class="st0" d="M3014.11,3595.97c1.57,2.05,2.35,4.59,2.2,7.17v1.06h-4.12v-1.29
				c0-3.72-1.49-5.58-4.46-5.58c-2.97,0-4.46,1.84-4.46,5.52c-0.05,1.7,0.48,3.36,1.5,4.71c1.33,1.6,2.84,3.03,4.51,4.27
				c1.6,1.34,2.85,2.47,3.76,3.4c0.97,1.01,1.76,2.18,2.34,3.46c0.67,1.49,1.01,3.11,0.98,4.74c0.15,2.58-0.64,5.13-2.23,7.17
				c-1.49,1.73-3.68,2.59-6.57,2.59c-2.9,0-5.08-0.86-6.54-2.59c-1.57-2.05-2.35-4.59-2.2-7.17v-2.23h4.07v2.45
				c-0.09,1.47,0.31,2.92,1.14,4.13c1.83,1.89,4.85,1.94,6.74,0.11c0.04-0.04,0.07-0.07,0.11-0.11c0.83-1.21,1.24-2.66,1.14-4.13
				c0.05-1.67-0.47-3.3-1.48-4.63c-1.33-1.6-2.83-3.04-4.48-4.3c-1.52-1.26-2.76-2.37-3.7-3.32c-1-1.02-1.81-2.21-2.4-3.51
				c-0.67-1.5-1-3.13-0.98-4.77c0-3.09,0.72-5.49,2.17-7.2c1.45-1.71,3.6-2.57,6.46-2.57
				C3010.48,3593.37,3012.64,3594.24,3014.11,3595.97z"/>
			<path id="Trazado_83" class="st0" d="M3036.71,3614.97h-9.53v13.89h11.7v3.96h-16.04v-39.06h16.04v3.96h-11.7v13.34h9.53V3614.97
				z"/>
			<path id="Trazado_84" class="st0" d="M3045.42,3632.82v-39.06h5.51l9.02,28.23v-28.23h3.84v39.06h-4.51l-9.97-31.58v31.58
				H3045.42z M3057.4,3591.2c-0.46,0-0.91-0.07-1.34-0.22c-0.48-0.18-0.95-0.41-1.39-0.67c-0.66-0.41-1.4-0.66-2.17-0.73
				c-0.5-0.02-0.99,0.11-1.42,0.36c-0.45,0.32-0.81,0.75-1.03,1.26l-2.17-1.45c0.85-2.16,2.23-3.24,4.12-3.24
				c0.47-0.01,0.95,0.07,1.39,0.22c0.5,0.19,0.98,0.42,1.45,0.67c0.66,0.41,1.4,0.66,2.17,0.72c1.03,0.01,1.95-0.64,2.28-1.62
				l2.17,1.45C3060.61,3590.12,3059.25,3591.2,3057.4,3591.2L3057.4,3591.2z"/>
			<path id="Trazado_85" class="st0" d="M3072.83,3596c1.5-1.75,3.72-2.62,6.66-2.62c2.93,0,5.16,0.88,6.68,2.62
				c1.62,2.04,2.43,4.6,2.28,7.2v20.2c0.15,2.6-0.66,5.16-2.28,7.2c-1.52,1.75-3.75,2.62-6.68,2.62c-2.49,0.17-4.93-0.8-6.63-2.62
				c-1.62-2.04-2.43-4.6-2.28-7.2v-20.2C3070.42,3600.6,3071.23,3598.04,3072.83,3596z M3076.03,3627.8c0.86,1,2.14,1.54,3.45,1.45
				c3.08,0,4.62-1.88,4.62-5.63v-20.65c0.09-1.47-0.31-2.94-1.14-4.16c-1.84-1.92-4.88-1.98-6.79-0.14
				c-0.05,0.05-0.09,0.09-0.14,0.14c-0.85,1.21-1.26,2.68-1.17,4.16v20.65C3074.76,3625.1,3075.18,3626.58,3076.03,3627.8z"/>
			<path id="Trazado_86" class="st0" d="M3106.67,3593.77h4.51l6.07,19.19l6.13-19.19h4.12l-8.3,25.05v14h-4.29v-14L3106.67,3593.77
				z"/>
			<path id="Trazado_87" class="st0" d="M3161.85,3596.3c1.47,1.69,2.2,4.08,2.2,7.17v19.7c0,3.05-0.73,5.42-2.2,7.11
				c-1.47,1.69-3.69,2.54-6.66,2.54h-9.14v-39.06h9.14C3158.16,3593.77,3160.38,3594.61,3161.85,3596.3z M3159.76,3623.34v-20.09
				c0-3.68-1.56-5.52-4.68-5.52h-4.68v31.13h4.73C3158.22,3628.86,3159.76,3627.02,3159.76,3623.34L3159.76,3623.34z"/>
			<path id="Trazado_88" class="st0" d="M3184.6,3614.97h-9.53v13.89h11.7v3.96h-16.04v-39.06h16.04v3.96h-11.7v13.34h9.53V3614.97z
				"/>
			<path id="Trazado_89" class="st0" d="M3208.02,3595.97c1.57,2.05,2.35,4.59,2.2,7.17v1.06h-4.13v-1.29
				c0-3.72-1.49-5.58-4.46-5.58c-2.97,0-4.46,1.84-4.46,5.52c-0.05,1.7,0.48,3.36,1.5,4.71c1.33,1.6,2.84,3.03,4.51,4.27
				c1.6,1.34,2.85,2.47,3.76,3.4c0.97,1.02,1.76,2.18,2.34,3.46c0.67,1.49,1.01,3.11,0.98,4.74c0.15,2.58-0.64,5.13-2.23,7.17
				c-1.49,1.73-3.68,2.59-6.57,2.59c-2.9,0-5.08-0.86-6.55-2.59c-1.57-2.05-2.35-4.59-2.2-7.17v-2.23h4.07v2.45
				c-0.09,1.47,0.31,2.92,1.14,4.13c1.83,1.89,4.85,1.94,6.74,0.11c0.04-0.04,0.07-0.07,0.11-0.11c0.83-1.21,1.24-2.66,1.14-4.13
				c0.05-1.67-0.47-3.3-1.48-4.63c-1.33-1.6-2.83-3.04-4.48-4.3c-1.52-1.26-2.76-2.37-3.7-3.32c-1-1.02-1.81-2.21-2.4-3.51
				c-0.67-1.5-1-3.13-0.97-4.77c0-3.09,0.72-5.49,2.17-7.2c1.45-1.71,3.6-2.57,6.46-2.57
				C3204.39,3593.37,3206.55,3594.24,3208.02,3595.97z"/>
			<path id="Trazado_90" class="st0" d="M3219.58,3632.82h-4.01l7.46-39.06h6.29l7.46,39.06h-4.34l-1.5-7.87h-9.86L3219.58,3632.82z
				 M3230.33,3621.22l-4.4-22.54l-4.29,22.54H3230.33z"/>
			<path id="Trazado_91" class="st0" d="M3258.4,3596c1.39,1.49,2.09,3.72,2.09,6.69v3.18c0.08,1.82-0.32,3.63-1.17,5.25
				c-1.55-0.42-3.15,0.49-3.58,2.04c-0.42,1.55,0.49,3.15,2.04,3.58c0.52,0.14,1.07,0.14,1.59-0.02c0.85,1.64,1.25,3.48,1.17,5.33
				v6.09c-0.01,0.9,0.04,1.81,0.14,2.7c0.08,0.7,0.3,1.37,0.64,1.98h-4.4c-0.26-0.6-0.45-1.23-0.56-1.87
				c-0.13-0.95-0.19-1.91-0.17-2.87v-6.14c0-2.12-0.47-3.62-1.42-4.49c-1.2-0.96-2.73-1.43-4.26-1.31h-3.06v16.68h-4.35v-39.06h8.69
				C3254.8,3593.76,3257.01,3594.51,3258.4,3596z M3254.83,3611.01c0.91-0.78,1.36-2.18,1.36-4.19v-3.74
				c0.1-1.42-0.27-2.83-1.06-4.02c-0.88-0.97-2.16-1.46-3.45-1.34h-4.23v14.45h3.23
				C3252.16,3612.29,3253.63,3611.88,3254.83,3611.01z"/>
			<path id="Trazado_92" class="st0" d="M3283.06,3596c1.39,1.49,2.09,3.72,2.09,6.69v3.18c0.08,1.82-0.32,3.63-1.17,5.25
				c-1.55-0.42-3.15,0.49-3.58,2.05c-0.42,1.55,0.49,3.15,2.05,3.58c0.52,0.14,1.07,0.14,1.59-0.02c0.85,1.64,1.25,3.48,1.17,5.33
				v6.09c-0.01,0.9,0.04,1.81,0.14,2.7c0.08,0.7,0.3,1.37,0.64,1.98h-4.4c-0.26-0.6-0.45-1.23-0.56-1.87
				c-0.13-0.95-0.19-1.91-0.17-2.87v-6.14c0-2.12-0.47-3.62-1.42-4.49c-1.2-0.96-2.73-1.43-4.26-1.31h-3.06v16.68h-4.35v-39.06h8.69
				C3279.46,3593.76,3281.67,3594.51,3283.06,3596z M3279.49,3611.01c0.91-0.78,1.36-2.18,1.36-4.19v-3.74
				c0.1-1.42-0.27-2.83-1.06-4.02c-0.88-0.97-2.16-1.46-3.45-1.34h-4.23v14.45h3.23
				C3276.82,3612.29,3278.29,3611.88,3279.49,3611.01z"/>
			<path id="Trazado_93" class="st0" d="M3294.11,3596c1.5-1.75,3.72-2.62,6.66-2.62c2.93,0,5.16,0.88,6.68,2.62
				c1.62,2.04,2.43,4.6,2.28,7.2v20.2c0.15,2.6-0.66,5.16-2.28,7.2c-1.52,1.75-3.75,2.62-6.68,2.62c-2.49,0.17-4.93-0.8-6.63-2.62
				c-1.62-2.04-2.43-4.6-2.28-7.2v-20.2C3291.71,3600.6,3292.51,3598.04,3294.11,3596z M3297.31,3627.8c0.86,1,2.14,1.54,3.45,1.45
				c3.08,0,4.62-1.88,4.62-5.63v-20.65c0.09-1.47-0.31-2.94-1.14-4.16c-1.84-1.92-4.88-1.98-6.79-0.14
				c-0.05,0.05-0.1,0.09-0.14,0.14c-0.85,1.21-1.26,2.68-1.17,4.16v20.65C3296.05,3625.1,3296.46,3626.58,3297.31,3627.8
				L3297.31,3627.8z"/>
			<path id="Trazado_94" class="st0" d="M3316.47,3593.77h4.35v35.1h11.14v3.96h-15.49V3593.77z"/>
			<path id="Trazado_95" class="st0" d="M3338.23,3593.77h4.35v35.1h11.14v3.96h-15.49V3593.77z"/>
			<path id="Trazado_96" class="st0" d="M3361.72,3596c1.5-1.75,3.72-2.62,6.66-2.62c2.93,0,5.16,0.88,6.68,2.62
				c1.62,2.04,2.43,4.6,2.28,7.2v20.2c0.15,2.6-0.66,5.16-2.28,7.2c-1.52,1.75-3.75,2.62-6.68,2.62c-2.49,0.17-4.92-0.8-6.63-2.62
				c-1.62-2.04-2.43-4.6-2.28-7.2v-20.2C3359.31,3600.6,3360.12,3598.04,3361.72,3596z M3364.92,3627.8c0.86,1,2.14,1.54,3.45,1.45
				c3.08,0,4.62-1.88,4.62-5.63v-20.65c0.09-1.47-0.31-2.94-1.14-4.16c-1.84-1.92-4.88-1.98-6.79-0.14
				c-0.05,0.05-0.1,0.09-0.14,0.14c-0.85,1.21-1.26,2.68-1.17,4.16v20.65C3363.65,3625.1,3364.07,3626.58,3364.92,3627.8z"/>
		</g>
	</g>
</g>
</svg>
