<?xml version="1.0" encoding="utf-8"?>
<!-- Generator: Adobe Illustrator 23.0.0, SVG Export Plug-In . SVG Version: 6.00 Build 0)  -->
<svg version="1.1" xmlns="http://www.w3.org/2000/svg" xmlns:xlink="http://www.w3.org/1999/xlink" x="0px" y="0px"
	 viewBox="0 0 480 520" style="enable-background:new 0 0 480 520;" xml:space="preserve">
<style type="text/css">
	.st0{fill-rule:evenodd;clip-rule:evenodd;fill:none;stroke:#808080;stroke-width:0.5;stroke-miterlimit:10;}
	.st1{fill:none;stroke:#FF0000;stroke-width:5;stroke-miterlimit:10;}
	.st2{fill:#FF0000;}
	.st3{fill:#E6007E;}
	.st4{fill:#06262D;}
	.st5{fill:#D50057;}
	.st6{fill:#FFFFFF;}
</style>
<g id="reticula">
</g>
<g id="trazos">
</g>
<g id="forma">
</g>
<g id="Capa_4">
	<g>
		<circle class="st5" cx="240" cy="248.7" r="239.08"/>
		<path class="st6" d="M369.34,316.25c-3.97-24.81-6.04-50.25-6.04-76.18c0-25.93,2.07-51.37,6.04-76.18L87.19,1
			c0,0,0.01,59.77,0.01,79.69c0,79.69,0,79.69,69.02,119.54c9.07,5.24,69,39.85,69,39.85l-69,39.85
			c-69.02,39.85-69.01,39.85-69.02,119.54c0,19.92-0.01,79.69-0.01,79.69l138.04-79.7C266.57,470.92,343.82,519,432.32,519
			c6.78,0,13.48-0.3,20.12-0.85C410.35,459.38,381.26,390.69,369.34,316.25z"/>
	</g>
</g>
</svg>
