<?xml version="1.0" encoding="utf-8"?>
<!-- Generator: Adobe Illustrator 23.0.0, SVG Export Plug-In . SVG Version: 6.00 Build 0)  -->
<svg version="1.1" id="Capa_1" xmlns="http://www.w3.org/2000/svg" xmlns:xlink="http://www.w3.org/1999/xlink" x="0px" y="0px"
	 viewBox="0 0 1400 480.39" style="enable-background:new 0 0 1400 480.39;" xml:space="preserve">
<style type="text/css">
	.st0{fill:#1D1D1B;}
	.st1{fill:#BE1622;}
</style>
<g>
	<rect class="st0" width="15" height="480.39"/>
	<rect x="101.67" class="st0" width="30" height="480.39"/>
	<rect x="15" class="st1" width="86.67" height="480.39"/>
	<rect x="218.33" class="st0" width="30" height="480.39"/>
	<rect x="131.67" class="st1" width="86.67" height="480.39"/>
	<rect x="335" class="st0" width="30" height="480.39"/>
	<rect x="248.33" class="st1" width="86.67" height="480.39"/>
	<rect x="451.67" class="st0" width="30" height="480.39"/>
	<rect x="365" class="st1" width="86.67" height="480.39"/>
	<rect x="568.33" class="st0" width="30" height="480.39"/>
	<rect x="481.67" class="st1" width="86.67" height="480.39"/>
	<rect x="685" class="st0" width="30" height="480.39"/>
	<rect x="598.33" class="st1" width="86.67" height="480.39"/>
	<rect x="801.67" class="st0" width="30" height="480.39"/>
	<rect x="715" class="st1" width="86.67" height="480.39"/>
	<rect x="918.33" class="st0" width="30" height="480.39"/>
	<rect x="831.67" class="st1" width="86.67" height="480.39"/>
	<rect x="1035" class="st0" width="30" height="480.39"/>
	<rect x="948.33" class="st1" width="86.67" height="480.39"/>
	<rect x="1151.67" class="st0" width="30" height="480.39"/>
	<rect x="1065" class="st1" width="86.67" height="480.39"/>
	<rect x="1268.33" class="st0" width="30" height="480.39"/>
	<rect x="1181.67" class="st1" width="86.67" height="480.39"/>
	<rect x="1385" class="st0" width="15" height="480.39"/>
	<rect x="1298.33" class="st1" width="86.67" height="480.39"/>
</g>
</svg>
