<?xml version="1.0" encoding="utf-8"?>
<!-- Generator: Adobe Illustrator 23.0.0, SVG Export Plug-In . SVG Version: 6.00 Build 0)  -->
<svg version="1.1" id="Capa_1" xmlns="http://www.w3.org/2000/svg" xmlns:xlink="http://www.w3.org/1999/xlink" x="0px" y="0px"
	 viewBox="0 0 475.52 475.52" style="enable-background:new 0 0 475.52 475.52;" xml:space="preserve">
<style type="text/css">
	.st0{fill:url(#SVGID_1_);}
	.st1{fill:url(#SVGID_2_);}
	.st2{opacity:0.05;fill:#1D1D1B;enable-background:new    ;}
	.st3{fill:#FFFFFF;}
</style>
<linearGradient id="SVGID_1_" gradientUnits="userSpaceOnUse" x1="22" y1="240.24" x2="453.52" y2="240.24" gradientTransform="matrix(1 0 0 -1 0 478)">
	<stop  offset="0" style="stop-color:#D50057"/>
	<stop  offset="1" style="stop-color:#C9002F"/>
</linearGradient>
<rect x="22" y="21.7" class="st0" width="431.52" height="432.12"/>
<linearGradient id="SVGID_2_" gradientUnits="userSpaceOnUse" x1="0" y1="240.24" x2="475.52" y2="240.24" gradientTransform="matrix(1 0 0 -1 0 478)">
	<stop  offset="0" style="stop-color:#BF004D"/>
	<stop  offset="1" style="stop-color:#B5002F"/>
</linearGradient>
<path class="st1" d="M439.06,36.18v403.16H36.46V36.18H439.06 M475.52,0h-36.46H36.46H0v36.18v403.16v36.18h36.46h402.6h36.46
	v-36.18V36.18V0L475.52,0z"/>
<g>
	<polygon class="st2" points="146.94,291.34 16.06,160.47 146.94,29.59 172.72,55.38 67.63,160.47 172.72,265.56 	"/>
	<polygon class="st2" points="328.59,468.92 302.81,443.14 407.9,338.05 302.81,232.96 328.59,207.17 459.46,338.05 	"/>
	<polygon class="st2" points="278.36,110.59 168.3,389.74 207.49,389.74 317.55,110.59 	"/>
	<polygon class="st3" points="146.94,279.84 16.06,148.97 146.94,18.1 172.72,43.88 67.63,148.97 172.72,254.06 	"/>
	<polygon class="st3" points="328.59,457.42 302.81,431.64 407.9,326.55 302.81,221.46 328.59,195.68 459.46,326.55 	"/>
	<polygon class="st3" points="278.36,99.1 168.3,378.24 207.49,378.24 317.55,99.1 	"/>
</g>
</svg>
