<?xml version="1.0" encoding="utf-8"?>
<!-- Generator: Adobe Illustrator 23.0.0, SVG Export Plug-In . SVG Version: 6.00 Build 0)  -->
<svg version="1.1" id="Capa_1" xmlns="http://www.w3.org/2000/svg" xmlns:xlink="http://www.w3.org/1999/xlink" x="0px" y="0px"
	 viewBox="0 0 517.88 598" style="enable-background:new 0 0 517.88 598;" xml:space="preserve">
<style type="text/css">
	.st0{fill:url(#SVGID_1_);}
	.st1{fill:url(#SVGID_2_);}
	.st2{opacity:0.05;fill:#1D1D1B;enable-background:new    ;}
	.st3{fill:#FFFFFF;}
</style>
<linearGradient id="SVGID_1_" gradientUnits="userSpaceOnUse" x1="1819.6571" y1="1069.038" x2="2362.2324" y2="1069.038" gradientTransform="matrix(0 -1 -1 0 1327.978 2389.9448)">
	<stop  offset="0" style="stop-color:#D50057"/>
	<stop  offset="1" style="stop-color:#C9002F"/>
</linearGradient>
<polygon class="st0" points="24,163.36 24,434.64 258.94,570.29 493.88,434.64 493.88,163.36 258.94,27.71 "/>
<linearGradient id="SVGID_2_" gradientUnits="userSpaceOnUse" x1="258.94" y1="2" x2="258.94" y2="600" gradientTransform="matrix(1 0 0 -1 0 600)">
	<stop  offset="0" style="stop-color:#BF004D"/>
	<stop  offset="1" style="stop-color:#B5002F"/>
</linearGradient>
<path class="st1" d="M258.94,42.1l222.48,128.45v256.9L258.94,555.9L36.46,427.45v-256.9L258.94,42.1 M258.94,0l-18.23,10.53
	L18.23,138.97L0,149.5v21.05v256.9v21.05l18.23,10.53l222.48,128.45L258.94,598l18.23-10.53l222.48-128.45l18.23-10.53v-21.05
	v-256.9V149.5l-18.23-10.53L277.17,10.52L258.94,0L258.94,0z"/>
<path class="st2" d="M351.85,235.82V80.92h-36.46v58.8h-112.9v-58.8h-36.46v154.89c0,31.17,16.04,57.36,44.49,74.81
	c-28.18,17.6-44.49,43.97-44.49,74.55v154.89h36.46v-58.8h112.9v58.8h36.46V385.18c0-30.57-16.3-56.95-44.48-74.55
	C335.81,293.17,351.85,266.98,351.85,235.82z M315.39,161.6v47.86h-112.9V161.6H315.39z M202.49,459.39v-47.86h112.9v47.86H202.49z
	 M315.39,389.66h-112.9v-4.48c0-36.35,39.02-51.1,56.45-55.87c17.43,4.77,56.45,19.52,56.45,55.87L315.39,389.66L315.39,389.66z
	 M258.94,291.7c-19.79-5.32-56.45-20.03-56.45-55.88v-4.48h112.9v4.48C315.39,271.67,278.73,286.37,258.94,291.7z"/>
<path class="st3" d="M351.85,224.32V69.43h-36.46v58.8h-112.9v-58.8h-36.46v154.89c0,31.17,16.04,57.36,44.49,74.81
	c-28.18,17.6-44.49,43.97-44.49,74.55v154.89h36.46v-58.8h112.9v58.8h36.46V373.68c0-30.57-16.3-56.95-44.48-74.55
	C335.81,281.68,351.85,255.49,351.85,224.32z M315.39,150.1v47.86h-112.9V150.1H315.39z M202.49,447.9v-47.86h112.9v47.86
	L202.49,447.9L202.49,447.9z M315.39,378.17h-112.9v-4.48c0-36.35,39.02-51.1,56.45-55.87c17.43,4.77,56.45,19.52,56.45,55.87
	L315.39,378.17L315.39,378.17z M258.94,280.2c-19.79-5.32-56.45-20.03-56.45-55.88v-4.48h112.9v4.48
	C315.39,260.17,278.73,274.88,258.94,280.2z"/>
</svg>
