<?xml version="1.0" encoding="utf-8"?>
<!-- Generator: Adobe Illustrator 23.0.0, SVG Export Plug-In . SVG Version: 6.00 Build 0)  -->
<svg version="1.1" id="Capa_1" xmlns="http://www.w3.org/2000/svg" xmlns:xlink="http://www.w3.org/1999/xlink" x="0px" y="0px"
	 viewBox="0 0 552.08 552.08" style="enable-background:new 0 0 552.08 552.08;" xml:space="preserve">
<style type="text/css">
	.st0{fill:url(#SVGID_1_);}
	.st1{fill:url(#SVGID_2_);}
	.st2{opacity:0.05;}
	.st3{fill:#1D1D1B;}
	.st4{fill:#FFFFFF;}
</style>
<linearGradient id="SVGID_1_" gradientUnits="userSpaceOnUse" x1="94.0217" y1="446.7303" x2="466.5928" y2="101.2765" gradientTransform="matrix(1 0 0 -1 0 554)">
	<stop  offset="0" style="stop-color:#D50057"/>
	<stop  offset="1" style="stop-color:#C9002F"/>
</linearGradient>
<circle class="st0" cx="276.04" cy="276.04" r="254.04"/>
<linearGradient id="SVGID_2_" gradientUnits="userSpaceOnUse" x1="0" y1="277.96" x2="552.08" y2="277.96" gradientTransform="matrix(1 0 0 -1 0 554)">
	<stop  offset="0" style="stop-color:#BF004D"/>
	<stop  offset="1" style="stop-color:#B5002F"/>
</linearGradient>
<path class="st1" d="M276.04,36.46c132.32,0,239.58,107.26,239.58,239.58S408.35,515.62,276.04,515.62S36.46,408.35,36.46,276.04
	S143.72,36.46,276.04,36.46 M276.04,0c-37.25,0-73.4,7.3-107.46,21.71c-32.87,13.9-62.39,33.8-87.73,59.14s-45.24,54.86-59.14,87.73
	C7.3,202.64,0,238.79,0,276.04s7.3,73.4,21.71,107.46c13.9,32.87,33.8,62.39,59.14,87.73s54.86,45.24,87.73,59.14
	c34.05,14.4,70.21,21.71,107.46,21.71s73.4-7.3,107.46-21.71c32.87-13.9,62.39-33.8,87.73-59.14
	c25.34-25.34,45.24-54.86,59.14-87.73c14.4-34.05,21.71-70.21,21.71-107.46s-7.3-73.4-21.71-107.46
	c-13.9-32.87-33.8-62.39-59.14-87.73c-25.34-25.34-54.86-45.24-87.73-59.14C349.44,7.3,313.29,0,276.04,0L276.04,0z"/>
<g class="st2">
	<path class="st3" d="M386.34,91.33H122.8v63.77h-14.21c-10.07,0-18.23,8.16-18.23,18.23s8.16,18.23,18.23,18.23h14.21v77.74h-14.21
		c-10.07,0-18.23,8.16-18.23,18.23s8.16,18.23,18.23,18.23h14.21v77.75h-14.21c-10.07,0-18.23,8.16-18.23,18.23
		s8.16,18.23,18.23,18.23h14.21v63.77h264.84c28.06,0,50.89-22.83,50.89-50.89V143.53C438.54,114.75,415.12,91.33,386.34,91.33z
		 M402.08,432.84c0,7.96-6.47,14.43-14.43,14.43H159.26V127.79h227.07c8.68,0,15.74,7.06,15.74,15.74L402.08,432.84L402.08,432.84z"
		/>
	<rect x="204.49" y="244.58" class="st3" width="152.37" height="21.88"/>
	<rect x="204.49" y="195.26" class="st3" width="152.37" height="21.88"/>
	<rect x="204.49" y="294.13" class="st3" width="103.12" height="21.88"/>
</g>
<g>
	<path class="st4" d="M386.34,79.83H122.8v63.77h-14.21c-10.07,0-18.23,8.16-18.23,18.23s8.16,18.23,18.23,18.23h14.21v77.74h-14.21
		c-10.07,0-18.23,8.16-18.23,18.23s8.16,18.23,18.23,18.23h14.21v77.75h-14.21c-10.07,0-18.23,8.16-18.23,18.23
		s8.16,18.23,18.23,18.23h14.21v63.77h264.84c28.06,0,50.89-22.83,50.89-50.89V132.04C438.54,103.25,415.12,79.83,386.34,79.83z
		 M402.08,421.35c0,7.96-6.47,14.43-14.43,14.43H159.26V116.29h227.07c8.68,0,15.74,7.06,15.74,15.74L402.08,421.35L402.08,421.35z"
		/>
	<rect x="204.49" y="233.08" class="st4" width="152.37" height="21.88"/>
	<rect x="204.49" y="183.76" class="st4" width="152.37" height="21.88"/>
	<rect x="204.49" y="282.64" class="st4" width="103.12" height="21.88"/>
</g>
</svg>
